<svg width="20" height="20" viewBox="0 0 20 20" fill="none" xmlns="http://www.w3.org/2000/svg">
<path d="M19.9359 8.69569C19.9039 8.63161 19.8078 8.56753 19.7437 8.56753L16.2835 7.95881L16.8282 3.34527C16.8282 3.31323 16.8282 3.28119 16.8282 3.24915V3.21712C16.8282 3.18508 16.7962 3.15304 16.7641 3.121C16.7641 3.121 16.7641 3.121 16.7321 3.121C16.7 3.08896 16.668 3.08896 16.636 3.05692H16.6039C16.5719 3.05692 16.5398 3.05692 16.5078 3.05692C16.5078 3.05692 16.5078 3.05692 16.4758 3.05692L11.9904 3.69769L11.3817 0.237539C11.3817 0.141424 11.3176 0.0773472 11.2535 0.0453088C11.1894 0.0132704 11.0933 -0.0187676 10.9972 0.0132709L8.94674 0.589964C8.85062 0.622002 8.78654 0.686079 8.7545 0.750156L3.01962 13.0529L2.41089 13.6616L0.744894 15.3276C-0.248298 16.3208 -0.248298 17.9228 0.744894 18.8839L1.12935 19.2684C1.60993 19.749 2.2507 20.0053 2.92351 20.0053C3.56428 20.0053 4.20504 19.749 4.71766 19.2684L6.38366 17.6024C6.38366 17.6024 6.38366 17.5703 6.4157 17.5703L7.02443 16.9616C7.05647 16.9296 7.05647 16.9296 7.05647 16.8975L19.2631 11.2267C19.3592 11.1947 19.3913 11.1306 19.4233 11.0345L20 8.98403C19.968 8.85588 19.968 8.7918 19.9359 8.69569ZM11.5739 12.7325C11.5419 12.8286 11.5739 12.8927 11.638 12.9568C11.702 13.0209 11.7661 13.085 11.8302 13.085L13.2399 13.2772L9.77973 14.8791L8.53024 13.6296L11.8302 11.3549L11.5739 12.7325ZM6.80016 16.2888L5.93512 15.4238L8.04966 13.982L9.23508 15.1675L6.80016 16.2888ZM4.7497 10.7141L5.90309 11.8675L4.46135 13.982L3.59631 13.117L4.7497 10.7141ZM6.4157 7.09377L6.60793 7.86269C6.63997 7.99084 6.76812 8.08696 6.89627 8.08696H8.4982L6.25551 11.3549L5.00601 10.1054L6.4157 7.09377ZM8.9147 10.4898C8.9147 10.65 9.04285 10.7782 9.20304 10.7782L11.4137 10.9063L8.11374 13.1811L6.73608 11.8034L8.85062 8.72773L8.9147 10.4898ZM4.90989 14.4306L6.35162 12.316L7.56908 13.5335L5.45454 14.9752L4.90989 14.4306ZM3.05166 13.8218L3.24389 13.6296L6.31958 16.7053L6.12735 16.8975L3.05166 13.8218ZM12.2147 10.3617L9.52343 10.2015L9.39527 7.92676L11.8943 4.30642L15.6107 3.76177L12.3108 7.06173C12.1826 7.18988 12.1826 7.38211 12.3108 7.47823C12.3749 7.54231 12.4389 7.57434 12.535 7.57434C12.5991 7.57434 12.6952 7.54231 12.7593 7.47823L16.0913 4.14623L15.6428 8.02288L12.2147 10.3617ZM9.23508 1.07054L10.4525 0.718116L8.72246 3.88992C8.62635 4.05011 8.69043 4.21031 8.85062 4.30642C8.88266 4.33846 8.94674 4.33846 9.01081 4.33846C9.10693 4.33846 9.23508 4.27438 9.26712 4.17827L10.9011 1.16665L11.3817 3.92196L8.94674 7.47823H7.47297L8.30597 6.10057C8.40208 5.94038 8.33801 5.78019 8.20985 5.68407C8.04966 5.58796 7.88947 5.65204 7.79335 5.78019L7.05647 7.02969L6.86424 6.19669L9.23508 1.07054ZM4.26912 18.7878C3.53224 19.5247 2.31478 19.5247 1.5779 18.7878L1.19343 18.4033C0.456546 17.6664 0.456546 16.449 1.19343 15.7121L2.63516 14.2704L5.71085 17.3461L4.26912 18.7878ZM14.2972 12.7966C14.2651 12.7966 14.2651 12.7966 14.2972 12.7966L12.9515 12.6044L14.3933 11.8995C14.5535 11.8355 14.6175 11.6432 14.5214 11.483C14.4573 11.3228 14.2651 11.2588 14.1049 11.3549L12.3108 12.252L12.5991 10.8743L15.9952 8.5355L18.7185 9.01607L15.2583 10.7782C15.0981 10.8423 15.034 11.0345 15.1302 11.1947C15.1942 11.2908 15.2903 11.3549 15.4185 11.3549C15.4505 11.3549 15.5146 11.3549 15.5467 11.3228L19.199 9.46461L18.8466 10.7141L14.2972 12.7966Z" fill="#231F20"/>
<path d="M11.5419 7.83014L11.0613 8.31072C10.9332 8.43887 10.9332 8.6311 11.0613 8.72722C11.1254 8.79129 11.1895 8.82333 11.2856 8.82333C11.3497 8.82333 11.4458 8.79129 11.5099 8.72722L11.9904 8.24664C12.1186 8.11849 12.1186 7.92626 11.9904 7.83014C11.8303 7.73403 11.638 7.73403 11.5419 7.83014Z" fill="#231F20"/>
</svg>
