<svg width="128" height="24" viewBox="0 0 128 24" fill="none" xmlns="http://www.w3.org/2000/svg">
<path d="M0.0664063 5.9375C0.0664063 5.14583 0.21224 4.41146 0.503906 3.73437C0.795573 3.04687 1.20182 2.45312 1.72266 1.95312C2.25391 1.45312 2.88932 1.0625 3.62891 0.781249C4.36849 0.499999 5.1862 0.359374 6.08203 0.359374C7.08203 0.359374 7.94661 0.520832 8.67578 0.843748C9.40495 1.16666 10.0039 1.59375 10.4727 2.125C10.9518 2.65625 11.306 3.26042 11.5352 3.9375C11.7747 4.61458 11.8945 5.30729 11.8945 6.01562V7.5625C11.8945 7.8125 11.8581 7.98958 11.7852 8.09375C11.7122 8.19792 11.5716 8.25 11.3633 8.25H8.45703C8.25911 8.25 8.1237 8.20312 8.05078 8.10937C7.97786 8.01562 7.94661 7.85417 7.95703 7.625V6.15625C7.95703 5.90625 7.91016 5.66667 7.81641 5.4375C7.73307 5.19792 7.60807 4.98437 7.44141 4.79687C7.27474 4.60937 7.07161 4.45833 6.83203 4.34375C6.59245 4.22917 6.32682 4.17187 6.03516 4.17187C5.73307 4.17187 5.46224 4.22396 5.22266 4.32812C4.98307 4.43229 4.77474 4.57292 4.59766 4.75C4.43099 4.92708 4.30078 5.13542 4.20703 5.375C4.11328 5.60417 4.06641 5.84896 4.06641 6.10937V17.5469C4.06641 17.8073 4.11328 18.0573 4.20703 18.2969C4.30078 18.5365 4.4362 18.75 4.61328 18.9375C4.79037 19.125 5.00391 19.276 5.25391 19.3906C5.50391 19.4948 5.77995 19.5469 6.08203 19.5469C6.38411 19.5469 6.65495 19.4948 6.89453 19.3906C7.13412 19.276 7.33724 19.125 7.50391 18.9375C7.67057 18.75 7.79557 18.5365 7.87891 18.2969C7.97266 18.0573 8.01953 17.8073 8.01953 17.5469V15.6406C8.01953 15.401 8.05599 15.2396 8.12891 15.1562C8.21224 15.0625 8.34245 15.0156 8.51953 15.0156H11.4414C11.6393 15.0156 11.7747 15.0573 11.8477 15.1406C11.931 15.2135 11.9727 15.3698 11.9727 15.6094V17.7812C11.9727 18.6562 11.8164 19.4375 11.5039 20.125C11.2018 20.8125 10.7852 21.3958 10.2539 21.875C9.72266 22.3542 9.09766 22.724 8.37891 22.9844C7.67057 23.2344 6.90495 23.3594 6.08203 23.3594C5.25912 23.3594 4.48307 23.2344 3.75391 22.9844C3.02474 22.724 2.38411 22.3542 1.83203 21.875C1.29036 21.3958 0.858073 20.8125 0.535156 20.125C0.222656 19.4271 0.0664063 18.6458 0.0664063 17.7812V5.9375ZM13.9238 5.9375C13.9238 5.07292 14.0801 4.29687 14.3926 3.60937C14.7155 2.91146 15.1478 2.32292 15.6895 1.84375C16.2415 1.36458 16.877 0.999999 17.5957 0.749998C18.3249 0.489582 19.1009 0.359374 19.9238 0.359374C20.7467 0.359374 21.5228 0.489582 22.252 0.749998C22.9915 0.999999 23.6322 1.36458 24.1738 1.84375C24.7259 2.32292 25.1582 2.90625 25.4707 3.59375C25.7936 4.28125 25.9551 5.0625 25.9551 5.9375V17.7969C25.9551 18.6615 25.7936 19.4375 25.4707 20.125C25.1582 20.8125 24.7259 21.3958 24.1738 21.875C23.6322 22.3542 22.9967 22.724 22.2676 22.9844C21.5384 23.2344 20.7624 23.3594 19.9395 23.3594C19.1165 23.3594 18.3405 23.2292 17.6113 22.9687C16.8822 22.7083 16.2415 22.3385 15.6895 21.8594C15.1478 21.3698 14.7155 20.7812 14.3926 20.0937C14.0801 19.4062 13.9238 18.6406 13.9238 17.7969V5.9375ZM17.9238 17.5781C17.9238 17.8385 17.9707 18.0885 18.0645 18.3281C18.1582 18.5573 18.2936 18.7656 18.4707 18.9531C18.6478 19.1302 18.8561 19.276 19.0957 19.3906C19.3457 19.4948 19.627 19.5469 19.9395 19.5469C20.2415 19.5469 20.5176 19.4948 20.7676 19.3906C21.0176 19.276 21.2311 19.1302 21.4082 18.9531C21.5853 18.7656 21.7207 18.5573 21.8145 18.3281C21.9082 18.0885 21.9551 17.8385 21.9551 17.5781V6.15625C21.9551 5.89583 21.903 5.64583 21.7988 5.40625C21.7051 5.16667 21.5645 4.95833 21.377 4.78125C21.1999 4.59375 20.9863 4.44792 20.7363 4.34375C20.4967 4.22917 20.2311 4.17187 19.9395 4.17187C19.6478 4.17187 19.377 4.22917 19.127 4.34375C18.8874 4.44792 18.6738 4.59375 18.4863 4.78125C18.3092 4.95833 18.1686 5.16667 18.0645 5.40625C17.9707 5.64583 17.9238 5.89583 17.9238 6.15625V17.5781ZM32.2598 17.5625C32.2598 17.8229 32.3066 18.0729 32.4004 18.3125C32.4941 18.5521 32.6296 18.7656 32.8066 18.9531C32.9837 19.1302 33.1973 19.276 33.4473 19.3906C33.6973 19.4948 33.9733 19.5469 34.2754 19.5469C34.5879 19.5469 34.8639 19.4948 35.1035 19.3906C35.3535 19.276 35.5671 19.1302 35.7441 18.9531C35.9212 18.7656 36.0566 18.5521 36.1504 18.3125C36.2441 18.0729 36.291 17.8229 36.291 17.5625V1.34375C36.291 1.17708 36.3327 1.03125 36.416 0.906249C36.5098 0.781249 36.64 0.718748 36.8066 0.718748H39.7598C39.9368 0.718748 40.0671 0.786457 40.1504 0.921874C40.2441 1.04687 40.291 1.1875 40.291 1.34375V17.7969C40.291 18.5677 40.1296 19.2917 39.8066 19.9687C39.4941 20.6458 39.0618 21.2344 38.5098 21.7344C37.9681 22.2344 37.3327 22.6302 36.6035 22.9219C35.8743 23.2135 35.0983 23.3594 34.2754 23.3594C33.4525 23.3594 32.6764 23.2135 31.9473 22.9219C31.2181 22.6302 30.5775 22.2344 30.0254 21.7344C29.4837 21.2344 29.0514 20.6458 28.7285 19.9687C28.416 19.2917 28.2598 18.5677 28.2598 17.7969V1.32812C28.2598 1.15104 28.3014 1.00521 28.3848 0.890624C28.4785 0.77604 28.5827 0.718748 28.6973 0.718748H31.791C31.9785 0.718748 32.1035 0.77604 32.166 0.890624C32.2285 1.00521 32.2598 1.15104 32.2598 1.32812V17.5625ZM42.9648 1.32812C42.9648 1.14062 43.0117 0.994791 43.1055 0.890624C43.2096 0.77604 43.3555 0.718748 43.543 0.718748H48.9805C49.8242 0.718748 50.6055 0.86979 51.3242 1.17187C52.0534 1.47396 52.6836 1.89062 53.2148 2.42187C53.7461 2.94271 54.1576 3.55729 54.4492 4.26562C54.7513 4.96354 54.9023 5.71354 54.9023 6.51562V9.28125C54.9023 10.3437 54.6992 11.2604 54.293 12.0312C53.8867 12.7917 53.3607 13.4167 52.7148 13.9062L55.1211 22.3906C55.1628 22.5365 55.1471 22.6771 55.0742 22.8125C55.0117 22.9375 54.9076 23 54.7617 23H51.6055C51.4388 23 51.319 22.9687 51.2461 22.9062C51.1732 22.8333 51.1211 22.6927 51.0898 22.4844L49.3398 15.1875C49.2565 15.1979 49.1732 15.2031 49.0898 15.2031C49.0065 15.2031 48.9232 15.2031 48.8398 15.2031H46.9805V22.4062C46.9805 22.8021 46.793 23 46.418 23H43.543C43.1576 23 42.9648 22.8021 42.9648 22.4062V1.32812ZM46.9805 4.53125V11.3906H48.9805C49.5846 11.3906 50.0534 11.2031 50.3867 10.8281C50.7201 10.4531 50.8867 9.97917 50.8867 9.40625V6.5C50.8867 5.90625 50.7096 5.43229 50.3555 5.07812C50.0117 4.71354 49.5482 4.53125 48.9648 4.53125H46.9805ZM56.0996 1.3125C56.0996 1.11458 56.1413 0.968749 56.2246 0.875C56.3184 0.770832 56.4329 0.718748 56.5684 0.718748H67.0527C67.1882 0.718748 67.3027 0.770832 67.3965 0.875C67.4902 0.968749 67.5371 1.10937 67.5371 1.29687V3.96875C67.5371 4.16667 67.4902 4.3125 67.3965 4.40625C67.3027 4.48958 67.1882 4.53125 67.0527 4.53125H63.8184V22.4219C63.8184 22.6198 63.7767 22.7656 63.6934 22.8594C63.61 22.9531 63.4954 23 63.3496 23H60.2871C60.1517 23 60.0371 22.9531 59.9434 22.8594C59.86 22.7656 59.8184 22.6198 59.8184 22.4219V4.53125H56.5684C56.4329 4.53125 56.3184 4.48958 56.2246 4.40625C56.1413 4.3125 56.0996 4.16667 56.0996 3.96875V1.3125ZM75.9824 1.32812C75.9824 1.14062 76.0293 0.994791 76.123 0.890624C76.2272 0.77604 76.373 0.718748 76.5605 0.718748H81.998C82.8418 0.718748 83.623 0.86979 84.3418 1.17187C85.071 1.46354 85.7012 1.86979 86.2324 2.39062C86.7637 2.91146 87.1751 3.52083 87.4668 4.21875C87.7689 4.91667 87.9199 5.66667 87.9199 6.46875V9.98437C87.9199 10.7865 87.7689 11.5417 87.4668 12.25C87.1647 12.9583 86.748 13.5781 86.2168 14.1094C85.696 14.6302 85.071 15.0417 84.3418 15.3437C83.623 15.6458 82.8418 15.7969 81.998 15.7969H79.998V22.3906C79.998 22.7969 79.8105 23 79.4355 23H76.5605C76.1751 23 75.9824 22.7969 75.9824 22.3906V1.32812ZM81.998 11.9844C82.5814 11.9844 83.0449 11.7969 83.3887 11.4219C83.7324 11.0469 83.9043 10.5729 83.9043 10V6.5625C83.9043 5.96875 83.7272 5.48437 83.373 5.10937C83.0293 4.72396 82.5658 4.53125 81.9824 4.53125H79.998V11.9844H81.998ZM100.449 22.3906C100.543 22.7969 100.434 23 100.121 23H96.9961C96.8503 23 96.7096 22.9635 96.5742 22.8906C96.4388 22.8073 96.3555 22.6667 96.3242 22.4687L95.793 19.2812H91.5586L91.043 22.4687C91.0117 22.6667 90.9284 22.8073 90.793 22.8906C90.6576 22.9635 90.5169 23 90.3711 23H87.2461C86.9336 23 86.8242 22.7969 86.918 22.3906L91.6523 1.26562C91.7461 0.90104 91.9596 0.718748 92.293 0.718748H95.0742C95.4076 0.718748 95.6211 0.90104 95.7148 1.26562L100.449 22.3906ZM92.1523 15.7031H95.1992L93.8555 7.51562L93.6836 5.39062L93.5117 7.51562L92.1523 15.7031ZM101.344 16.7344C101.344 16.4635 101.375 16.2708 101.438 16.1562C101.51 16.0312 101.661 15.9687 101.891 15.9687H104.734C104.974 15.9687 105.125 16.0208 105.188 16.125C105.26 16.2187 105.297 16.3854 105.297 16.625V17.3594C105.297 17.7656 105.359 18.1094 105.484 18.3906C105.62 18.6719 105.786 18.8958 105.984 19.0625C106.193 19.2292 106.417 19.349 106.656 19.4219C106.896 19.4948 107.12 19.5312 107.328 19.5312C107.589 19.5312 107.839 19.4844 108.078 19.3906C108.328 19.2969 108.547 19.1667 108.734 19C108.922 18.8229 109.068 18.6146 109.172 18.375C109.286 18.1354 109.344 17.8646 109.344 17.5625C109.344 17.1667 109.292 16.8125 109.188 16.5C109.094 16.1875 108.932 15.8854 108.703 15.5937C108.484 15.3021 108.198 15 107.844 14.6875C107.49 14.3646 107.057 14 106.547 13.5937C105.693 12.9167 104.943 12.3177 104.297 11.7969C103.651 11.276 103.109 10.75 102.672 10.2187C102.234 9.6875 101.901 9.10417 101.672 8.46875C101.453 7.82292 101.344 7.04167 101.344 6.125C101.344 5.42708 101.432 4.80208 101.609 4.25C101.797 3.6875 102.042 3.19271 102.344 2.76562C102.646 2.33854 102.995 1.97396 103.391 1.67187C103.797 1.36979 104.214 1.11979 104.641 0.921874C105.068 0.723957 105.5 0.583331 105.938 0.499998C106.375 0.406248 106.781 0.359374 107.156 0.359374C108.01 0.359374 108.792 0.499999 109.5 0.781249C110.219 1.0625 110.833 1.45833 111.344 1.96875C111.865 2.47917 112.266 3.09375 112.547 3.8125C112.839 4.53125 112.984 5.33333 112.984 6.21875V7.15625C112.984 7.39583 112.943 7.55729 112.859 7.64062C112.786 7.71354 112.615 7.75 112.344 7.75H109.578C109.37 7.75 109.234 7.70833 109.172 7.625C109.109 7.54167 109.078 7.38542 109.078 7.15625V6.23437C109.078 5.95312 109.036 5.6875 108.953 5.4375C108.87 5.1875 108.75 4.96875 108.594 4.78125C108.438 4.59375 108.245 4.44792 108.016 4.34375C107.786 4.22917 107.526 4.17187 107.234 4.17187C107.026 4.17187 106.807 4.20833 106.578 4.28125C106.359 4.35417 106.156 4.47396 105.969 4.64062C105.792 4.80729 105.646 5.02083 105.531 5.28125C105.417 5.54167 105.359 5.85937 105.359 6.23437C105.359 6.63021 105.411 6.97917 105.516 7.28125C105.63 7.57292 105.786 7.84896 105.984 8.10937C106.193 8.36979 106.438 8.61979 106.719 8.85937C107.01 9.09896 107.339 9.35417 107.703 9.625C108.474 10.2083 109.198 10.7708 109.875 11.3125C110.563 11.8542 111.161 12.4375 111.672 13.0625C112.193 13.6771 112.599 14.3646 112.891 15.125C113.193 15.8854 113.344 16.776 113.344 17.7969C113.344 18.5469 113.198 19.2604 112.906 19.9375C112.615 20.6042 112.203 21.1927 111.672 21.7031C111.141 22.2031 110.5 22.6042 109.75 22.9062C109.01 23.2083 108.182 23.3594 107.266 23.3594C106.286 23.3594 105.427 23.2031 104.688 22.8906C103.948 22.5677 103.328 22.1406 102.828 21.6094C102.339 21.0781 101.969 20.4635 101.719 19.7656C101.469 19.0677 101.344 18.3385 101.344 17.5781V16.7344ZM115.201 16.7344C115.201 16.4635 115.232 16.2708 115.295 16.1562C115.368 16.0312 115.519 15.9687 115.748 15.9687H118.592C118.831 15.9687 118.982 16.0208 119.045 16.125C119.118 16.2187 119.154 16.3854 119.154 16.625V17.3594C119.154 17.7656 119.217 18.1094 119.342 18.3906C119.477 18.6719 119.644 18.8958 119.842 19.0625C120.05 19.2292 120.274 19.349 120.514 19.4219C120.753 19.4948 120.977 19.5312 121.186 19.5312C121.446 19.5312 121.696 19.4844 121.936 19.3906C122.186 19.2969 122.404 19.1667 122.592 19C122.779 18.8229 122.925 18.6146 123.029 18.375C123.144 18.1354 123.201 17.8646 123.201 17.5625C123.201 17.1667 123.149 16.8125 123.045 16.5C122.951 16.1875 122.79 15.8854 122.561 15.5937C122.342 15.3021 122.055 15 121.701 14.6875C121.347 14.3646 120.915 14 120.404 13.5937C119.55 12.9167 118.8 12.3177 118.154 11.7969C117.508 11.276 116.967 10.75 116.529 10.2187C116.092 9.6875 115.758 9.10417 115.529 8.46875C115.311 7.82292 115.201 7.04167 115.201 6.125C115.201 5.42708 115.29 4.80208 115.467 4.25C115.654 3.6875 115.899 3.19271 116.201 2.76562C116.503 2.33854 116.852 1.97396 117.248 1.67187C117.654 1.36979 118.071 1.11979 118.498 0.921874C118.925 0.723957 119.357 0.583331 119.795 0.499998C120.232 0.406248 120.639 0.359374 121.014 0.359374C121.868 0.359374 122.649 0.499999 123.357 0.781249C124.076 1.0625 124.691 1.45833 125.201 1.96875C125.722 2.47917 126.123 3.09375 126.404 3.8125C126.696 4.53125 126.842 5.33333 126.842 6.21875V7.15625C126.842 7.39583 126.8 7.55729 126.717 7.64062C126.644 7.71354 126.472 7.75 126.201 7.75H123.436C123.227 7.75 123.092 7.70833 123.029 7.625C122.967 7.54167 122.936 7.38542 122.936 7.15625V6.23437C122.936 5.95312 122.894 5.6875 122.811 5.4375C122.727 5.1875 122.607 4.96875 122.451 4.78125C122.295 4.59375 122.102 4.44792 121.873 4.34375C121.644 4.22917 121.383 4.17187 121.092 4.17187C120.883 4.17187 120.665 4.20833 120.436 4.28125C120.217 4.35417 120.014 4.47396 119.826 4.64062C119.649 4.80729 119.503 5.02083 119.389 5.28125C119.274 5.54167 119.217 5.85937 119.217 6.23437C119.217 6.63021 119.269 6.97917 119.373 7.28125C119.488 7.57292 119.644 7.84896 119.842 8.10937C120.05 8.36979 120.295 8.61979 120.576 8.85937C120.868 9.09896 121.196 9.35417 121.561 9.625C122.331 10.2083 123.055 10.7708 123.732 11.3125C124.42 11.8542 125.019 12.4375 125.529 13.0625C126.05 13.6771 126.456 14.3646 126.748 15.125C127.05 15.8854 127.201 16.776 127.201 17.7969C127.201 18.5469 127.055 19.2604 126.764 19.9375C126.472 20.6042 126.061 21.1927 125.529 21.7031C124.998 22.2031 124.357 22.6042 123.607 22.9062C122.868 23.2083 122.04 23.3594 121.123 23.3594C120.144 23.3594 119.285 23.2031 118.545 22.8906C117.805 22.5677 117.186 22.1406 116.686 21.6094C116.196 21.0781 115.826 20.4635 115.576 19.7656C115.326 19.0677 115.201 18.3385 115.201 17.5781V16.7344Z" fill="#FFFAFA"/>
</svg>
